:SAMPLES-PER-SECOND 30
:FULLY-SPECIFIED
:DEGREES
455
root  -7.82044 39.8583 5.64312 160.484 -85.4354 -161.466
RightUpLeg  -3.84818 -11.9694 -5.72853
RightLeg  16.3561 -31.2476 -8.78526
RightFoot  1.46595 -0.886729 7.97666
RightToes  -1.33073e-015 0 -3.6325e-017
Spine  11.3984 0.901547 3.35275
Spine1  -7.66255 1.4782 -2.27069
HEad  12.3921 2.20439 -2.12879
LeftShoulder1  0.708001 -0.359597 -11.106
LeftArm  11.1079 22.7657 -52.2346
LeftForeArm  163.852 -73.8954 -145.366
LeftHand  -0.892539 1.46552 26.1429
RightShoulder  0.758597 0.420307 12.3368
RightArm  2.15471 -16.9497 48.2179
RightForeArm  137.305 78.6806 123.221
RightHand  -1.03165 0.632329 -19.8367
LeftUpLeg  0.633615 14.6826 18.5171
LeftLeg  7.85949 5.17189 1.71502
LeftFoot  5.47698 3.40211 -22.9312
LeftToes  -4.0021e-011 8.38769e-011 -3.99229e-011
456
root  -8.00577 39.7963 6.11706 162.764 -85.5385 -164.568
RightUpLeg  -3.24816 -14.1304 -7.11357
RightLeg  17.1006 -28.8962 -9.06306
RightFoot  1.70444 -0.96593 8.53643
RightToes  -1.33073e-015 0 -3.6325e-017
Spine  10.7375 0.987695 0.55724
Spine1  -6.66578 1.03344 -0.32779
HEad  22.8664 0.831818 -0.645446
LeftShoulder1  0.736591 -0.278761 -12.3768
LeftArm  8.61882 26.0631 -55.9459
LeftForeArm  123.264 -80.5587 -103.283
LeftHand  -0.957271 1.68297 29.6827
RightShoulder  0.865322 0.518191 14.7506
RightArm  -0.862272 -19.714 50.1039
RightForeArm  79.7994 79.7002 66.3774
RightHand  -1.34745 1.35666 -23.0749
LeftUpLeg  2.08393 14.269 17.2447
LeftLeg  7.55729 7.48526 2.20088
LeftFoot  3.60847 2.65564 -20.214
LeftToes  -4.0021e-011 8.38769e-011 -3.99229e-011
457
root  -8.1441 39.7101 6.55708 168.2 -85.4889 -170.832
RightUpLeg  -3.06146 -15.5209 -8.70711
RightLeg  18.5338 -26.7708 -9.60751
RightFoot  2.1486 -1.07057 9.16027
RightToes  -1.33073e-015 0 -3.6325e-017
Spine  10.1798 1.15115 -2.07357
Spine1  -5.51332 0.726693 1.2818
HEad  32.9865 -1.05246 0.167531
LeftShoulder1  0.778132 -0.217783 -13.9565
LeftArm  5.89788 27.6952 -57.7208
LeftForeArm  67.8835 -78.3444 -52.8046
LeftHand  -0.816484 2.63556 33.9
RightShoulder  1.00712 0.691664 17.4827
RightArm  -6.13051 -22.9278 51.5512
RightForeArm  49.2432 74.9213 38.6568
RightHand  -1.74037 1.82963 -27.6797
LeftUpLeg  3.27086 13.5556 15.7921
LeftLeg  7.43859 8.81973 2.60331
LeftFoot  1.55032 2.07142 -18.3062
LeftToes  -4.0021e-011 8.38769e-011 -3.99229e-011
458
root  -8.21952 39.6248 6.95219 170.195 -85.228 -173.518
RightUpLeg  -3.28103 -16.2556 -10.1061
RightLeg  20.3884 -24.5742 -9.89929
RightFoot  2.8443 -1.37108 11.1352
RightToes  -1.33073e-015 0 -3.6325e-017
Spine  9.27928 1.24756 -4.2427
Spine1  -3.23759 0.361433 2.84048
HEad  41.0221 -2.57515 -0.0997933
LeftShoulder1  0.829121 -0.188222 -15.6485
LeftArm  3.46052 28.281 -57.9676
LeftForeArm  44.312 -74.0541 -36.835
LeftHand  -0.634341 3.45651 37.4717
RightShoulder  1.1428 0.887302 19.6818
RightArm  -11.5605 -25.6886 52.6853
RightForeArm  36.8236 71.506 31.232
RightHand  -2.18738 2.20098 -32.8068
LeftUpLeg  4.00803 13.3918 15.176
LeftLeg  8.01926 8.62425 2.60302
LeftFoot  -0.211238 1.76111 -17.9467
LeftToes  -4.0021e-011 8.38769e-011 -3.99229e-011
459
root  -8.22506 39.5488 7.30999 169.914 -84.687 -173.778
RightUpLeg  -4.37983 -17.5765 -11.5714
RightLeg  23.2764 -21.0631 -9.79734
RightFoot  4.16491 -1.97812 14.6285
RightToes  -1.33073e-015 0 -3.6325e-017
Spine  7.96511 1.28274 -5.89703
Spine1  0.402864 -0.0574947 3.9191
HEad  45.9189 -3.48593 -0.852951
LeftShoulder1  0.871511 -0.210749 -16.7445
LeftArm  1.69183 28.0557 -57.7888
LeftForeArm  34.3929 -71.2834 -31.2622
LeftHand  -0.498956 3.95885 40.0382
RightShoulder  1.21907 1.01655 20.6952
RightArm  -14.6694 -27.4386 53.3891
RightForeArm  31.0035 70.0109 29.1488
RightHand  -2.6019 2.59464 -36.868
LeftUpLeg  4.24223 13.6737 15.1068
LeftLeg  9.47757 8.42766 2.57414
LeftFoot  -1.53829 1.5639 -18.001
LeftToes  -4.0021e-011 8.38769e-011 -3.99229e-011
460
root  -8.16858 39.4707 7.61432 171.56 -83.5333 -175.973
RightUpLeg  -6.70513 -19.2982 -13.3886
RightLeg  27.5798 -15.6661 -8.88302
RightFoot  6.78407 -2.65888 16.8834
RightToes  -1.33073e-015 0 -3.6325e-017
Spine  6.85978 1.50242 -7.049
Spine1  4.3779 -0.163994 3.99817
HEad  48.3706 -4.06234 -1.40544
LeftShoulder1  0.893335 -0.270776 -16.9685
LeftArm  1.28886 27.289 -57.439
LeftForeArm  30.7416 -69.037 -27.3285
LeftHand  -0.389979 4.301 41.4612
RightShoulder  1.22958 1.06848 20.6086
RightArm  -14.5199 -28.3986 53.3079
RightForeArm  29.7115 69.1737 27.7698
RightHand  -2.74374 2.65921 -38.4127
LeftUpLeg  4.47665 13.7697 14.791
LeftLeg  11.0067 9.1408 2.85363
LeftFoot  -2.70235 1.38599 -18.0109
LeftToes  -4.0021e-011 8.38769e-011 -3.99229e-011
461
root  -8.05869 39.3667 7.8264 173.788 -81.821 -178.948
RightUpLeg  -9.82317 -19.7468 -15.2152
RightLeg  32.5917 -8.97571 -6.33787
RightFoot  10.1222 -2.87273 15.486
RightToes  -1.33073e-015 0 -3.6325e-017
Spine  6.68468 1.99992 -7.77223
Spine1  7.469 0.1842 3.33568
HEad  49.838 -4.37514 -1.76324
LeftShoulder1  0.924405 -0.420465 -16.8486
LeftArm  2.57681 26.3805 -56.2927
LeftForeArm  29.159 -66.841 -24.0714
LeftHand  -0.387791 4.31314 41.7329
RightShoulder  1.21958 1.12963 19.9925
RightArm  -12.0878 -28.9243 52.4664
RightForeArm  30.9777 68.0339 25.6069
RightHand  -2.63019 2.48187 -37.6916
LeftUpLeg  4.96026 13.749 14.386
LeftLeg  12.4583 10.1659 3.29951
LeftFoot  -3.86198 1.22644 -18.2816
LeftToes  -4.0021e-011 8.38769e-011 -3.99229e-011
462
root  -7.9088 39.2607 7.92868 173.311 -80.4165 -179.327
RightUpLeg  -12.5268 -18.4674 -16.5706
RightLeg  36.7357 -2.75538 -2.48451
RightFoot  11.9782 -2.49631 12.4264
RightToes  -1.33073e-015 0 -3.6325e-017
Spine  7.33001 2.4322 -8.08782
Spine1  9.60421 0.525056 2.65013
HEad  50.9673 -4.29949 -2.17761
LeftShoulder1  0.996984 -0.714408 -16.9348
LeftArm  5.14132 25.4572 -54.1679
LeftForeArm  27.5346 -64.9515 -21.8619
LeftHand  -0.504819 3.9883 41.3341
RightShoulder  1.22444 1.25265 19.3634
RightArm  -8.96021 -28.9837 51.4641
RightForeArm  32.5364 66.0661 22.572
RightHand  -2.49904 2.32416 -36.6336
LeftUpLeg  5.37719 14.0294 14.6095
LeftLeg  14.0241 10.5928 3.60693
LeftFoot  -4.71588 1.11497 -18.6298
LeftToes  -4.0021e-011 8.38769e-011 -3.99229e-011
463
root  -7.7519 39.2142 7.91448 170.19 -80.2221 -176.732
RightUpLeg  -13.815 -16.7365 -17.551
RightLeg  38.4907 0.267205 -0.0619724
RightFoot  11.2722 -2.30602 11.9075
RightToes  -1.33073e-015 0 -3.6325e-017
Spine  7.92437 2.40314 -7.96887
Spine1  11.449 0.421129 2.2667
HEad  51.7009 -3.99936 -2.53513
LeftShoulder1  1.089 -1.05953 -17.1882
LeftArm  8.2743 24.3042 -51.7303
LeftForeArm  26.1284 -62.9441 -19.8828
LeftHand  -0.596603 3.73279 41.1135
RightShoulder  1.23911 1.37213 19.0022
RightArm  -6.2663 -28.5488 50.8768
RightForeArm  33.2762 63.0206 19.1085
RightHand  -2.44276 2.16964 -36.5439
LeftUpLeg  5.23798 14.4294 15.4159
LeftLeg  15.2158 10.1707 3.73829
LeftFoot  -4.93088 1.07736 -18.5733
LeftToes  -4.0021e-011 8.38769e-011 -3.99229e-011
464
root  -7.62612 39.2302 7.76619 165.919 -81.17 -172.336
RightUpLeg  -13.6154 -15.7433 -18.5057
RightLeg  36.9837 -0.90337 -0.952991
RightFoot  10.2305 -2.57159 13.782
RightToes  -1.33073e-015 0 -3.6325e-017
Spine  7.90909 1.99481 -7.55578
Spine1  13.0795 0.0358998 2.05417
HEad  52.2637 -3.87312 -2.62576
LeftShoulder1  1.15726 -1.31295 -17.3657
LeftArm  11.5518 22.8305 -49.6654
LeftForeArm  25.3953 -59.8589 -17.2529
LeftHand  -0.598676 3.74323 41.5097
RightShoulder  1.25027 1.41518 19.0071
RightArm  -4.46644 -28.0503 50.7604
RightForeArm  33.2619 59.0192 15.7903
RightHand  -2.47285 2.17421 -36.9399
LeftUpLeg  4.37931 14.5327 16.1507
LeftLeg  15.5287 9.19693 3.77918
LeftFoot  -4.59739 1.1115 -18.2668
LeftToes  -4.0021e-011 8.38769e-011 -3.99229e-011
